# xmcd
#
# Track frame offsets:
#	150
#	16257
#	27747
#	42726
#	58281
#	73662
#	88494
#	102773
#	118567
#	133332
#	148702
#	163733
#	174896
#	196893
#	212560
#
# Disc length: 3046 seconds
#
# Revision: 0
# Processed by: cddbd v1.5.1PL2 Copyright (c) Steve Scherf et al.
# Submitted via: dBpowerAMP V4.0
#
DISCID=e50be40f
DTITLE=Glen Miller - Ultimate Jazz and Blues
DYEAR=2004
DGENRE=Blues
TTITLE0=In The Mood
TTITLE1=The Jumpin' Jive
TTITLE2=A String of Pearls
TTITLE3=Song of the Volga Boatmen
TTITLE4=Sunrise Serenade
TTITLE5=Pennsylvania 6-5000
TTITLE6=Farewell Blues
TTITLE7=Tuxedo Junction
TTITLE8=Perfidia
TTITLE9=Moonlight Serenade
TTITLE10=American Patrol
TTITLE11=Sun Valley Jump
TTITLE12=Anvil Chorus
TTITLE13=Chattanooga Choo Choo
TTITLE14=St. Louis Blues March
EXTD=
EXTT0=
EXTT1=
EXTT2=
EXTT3=
EXTT4=
EXTT5=
EXTT6=
EXTT7=
EXTT8=
EXTT9=
EXTT10=
EXTT11=
EXTT12=
EXTT13=
EXTT14=
PLAYORDER=
